<svg width="30" height="31" viewBox="0 0 30 31" fill="none" xmlns="http://www.w3.org/2000/svg">
<path fill-rule="evenodd" clip-rule="evenodd" d="M7.29412 1.73535C7.29412 1.18307 6.8464 0.735352 6.29412 0.735352C5.74183 0.735352 5.29412 1.18307 5.29412 1.73535V2.85309H4.17647C1.86987 2.85309 0 4.72295 0 7.02956V9.14712V26.0884C0 28.395 1.86987 30.2649 4.17647 30.2649H25.3529C27.6595 30.2649 29.5294 28.395 29.5294 26.0884V9.14712V7.02956C29.5294 4.72295 27.6595 2.85309 25.3529 2.85309H24.2353V1.73535C24.2353 1.18307 23.7876 0.735352 23.2353 0.735352C22.683 0.735352 22.2353 1.18307 22.2353 1.73535V2.85309H7.29412V1.73535ZM27.5294 8.14712V7.02956C27.5294 5.82752 26.555 4.85309 25.3529 4.85309H4.17647C2.97444 4.85309 2 5.82752 2 7.02956V8.14712H27.5294ZM2 10.1471H27.5294V26.0884C27.5294 27.2904 26.555 28.2649 25.3529 28.2649H4.17647C2.97444 28.2649 2 27.2904 2 26.0884V10.1471ZM10.5182 12.3824C8.70326 12.3824 7.59492 13.3784 7.15269 14.126C6.87151 14.6014 7.02891 15.2146 7.50426 15.4958C7.9796 15.777 8.59289 15.6196 8.87407 15.1443C9.00493 14.923 9.50071 14.3824 10.5182 14.3824C11.1873 14.3824 11.7524 14.5664 12.1247 14.85C12.4697 15.1127 12.6874 15.4835 12.6874 16.0229H12.6873L12.6874 16.0342C12.6897 16.2354 12.6517 16.435 12.5756 16.6213C12.4996 16.8076 12.387 16.9768 12.2445 17.1189L12.2445 17.1188L12.2354 17.1281C11.7427 17.6325 10.9219 17.8506 10.5208 17.8506C9.96852 17.8506 9.52081 18.2983 9.52081 18.8506C9.52081 19.4029 9.96852 19.8506 10.5208 19.8506C11.0011 19.8506 11.9683 20.106 12.5555 20.7065L12.5567 20.7078C12.8494 21.006 13.0368 21.479 13.0368 22.1296C13.0368 22.7397 12.7927 23.178 12.4018 23.4867C11.9881 23.8135 11.3586 24.0295 10.5876 24.0295C9.50389 24.0295 8.78937 23.2253 8.54506 22.8113C8.26439 22.3356 7.65127 22.1776 7.17562 22.4582C6.69997 22.7389 6.54191 23.352 6.82259 23.8277C7.22416 24.5082 8.47243 26.0295 10.5876 26.0295C11.7087 26.0295 12.8037 25.718 13.6416 25.0561C14.5023 24.3762 15.0368 23.3646 15.0368 22.1296C15.0368 21.1103 14.7399 20.0773 13.9848 19.3075C13.7956 19.1142 13.5907 18.9432 13.3767 18.7928C13.4751 18.7108 13.5703 18.6234 13.6617 18.5302C13.9909 18.2006 14.2511 17.8086 14.4272 17.3773C14.6034 16.9457 14.6919 16.4834 14.6874 16.0174C14.6857 14.8308 14.1563 13.8833 13.3365 13.2589C12.5428 12.6544 11.5233 12.3824 10.5182 12.3824ZM13.9848 19.3075L13.9841 19.3069L13.2704 20.0073L13.9854 19.3082L13.9848 19.3075ZM22.1176 13.6471C22.1176 13.0948 21.6699 12.6471 21.1176 12.6471C20.5654 12.6471 20.1176 13.0948 20.1176 13.6471V24.7648C20.1176 25.317 20.5654 25.7648 21.1176 25.7648C21.6699 25.7648 22.1176 25.317 22.1176 24.7648V13.6471Z" fill="#086A92"/>
</svg>
