<svg width="32" height="31" viewBox="0 0 32 31" fill="none" xmlns="http://www.w3.org/2000/svg">
<path d="M4.21429 15.7003V28.3566C4.21429 28.6407 4.32717 28.9132 4.5281 29.1142C4.72903 29.3151 5.00155 29.428 5.28571 29.428H11.7143V20.3208C11.7143 19.8946 11.8836 19.4858 12.185 19.1844C12.4864 18.883 12.8952 18.7137 13.3214 18.7137H18.6786C19.1048 18.7137 19.5136 18.883 19.815 19.1844C20.1164 19.4858 20.2857 19.8946 20.2857 20.3208V29.428H26.7143C26.9984 29.428 27.271 29.3151 27.4719 29.1142C27.6728 28.9132 27.7857 28.6407 27.7857 28.3566V15.7003M25.6429 10.3432V2.64228H22.4286V7.26282M31 15.4994L16.7292 1.83871C16.3944 1.48514 15.6116 1.48112 15.2708 1.83871L1 15.4994H31Z" stroke="#086A92" stroke-width="2" stroke-linecap="round" stroke-linejoin="round"/>
</svg>
