<svg width="30" height="27" viewBox="0 0 30 27" fill="none" xmlns="http://www.w3.org/2000/svg">
<path fill-rule="evenodd" clip-rule="evenodd" d="M9.16854 2.98007C9.34992 2.79868 9.59594 2.69678 9.85246 2.69678H19.6885C19.945 2.69678 20.1911 2.79868 20.3724 2.98007C20.5538 3.16146 20.6557 3.40747 20.6557 3.66399V4.63114H8.88525V3.66399C8.88525 3.40747 8.98715 3.16146 9.16854 2.98007ZM6.88525 4.63114V3.66399C6.88525 2.87704 7.19786 2.12231 7.75432 1.56585C8.31078 1.00939 9.0655 0.696777 9.85246 0.696777H19.6885C20.4755 0.696777 21.2302 1.00939 21.7867 1.56585C22.3431 2.12231 22.6557 2.87704 22.6557 3.66399V4.63114H25.5902C27.7721 4.63114 29.541 6.39999 29.541 8.58196V12.5164V22.3525C29.541 24.5344 27.7721 26.3033 25.5902 26.3033H3.95082C1.76884 26.3033 0 24.5344 0 22.3525V12.5164V8.58196C0 6.39999 1.76884 4.63114 3.95082 4.63114H6.88525ZM7.87421 6.63114H3.95082C2.87341 6.63114 2 7.50456 2 8.58196V11.5164H10.8361H18.7049H27.541V8.58196C27.541 7.50456 26.6676 6.63114 25.5902 6.63114H21.6668C21.6631 6.63118 21.6594 6.6312 21.6557 6.6312H7.88525C7.88156 6.6312 7.87789 6.63118 7.87421 6.63114ZM27.541 13.5164H19.7049V13.9919C19.7049 14.3875 19.5477 14.767 19.268 15.0467C18.9882 15.3265 18.6088 15.4837 18.2131 15.4837H11.3279C10.9322 15.4837 10.5528 15.3265 10.273 15.0467C9.99323 14.767 9.83606 14.3875 9.83606 13.9919V13.5164H2V22.3525C2 23.4299 2.87341 24.3033 3.95082 24.3033H25.5902C26.6676 24.3033 27.541 23.4299 27.541 22.3525V13.5164Z" fill="#086A92"/>
</svg>
