<svg width="30" height="27" viewBox="0 0 30 27" fill="none" xmlns="http://www.w3.org/2000/svg">
<path fill-rule="evenodd" clip-rule="evenodd" d="M2 3.66399C2 3.12981 2.43304 2.69678 2.96721 2.69678H26.5738C27.1079 2.69678 27.541 3.12981 27.541 3.66399V16.4509H2V3.66399ZM14.9493 20.3689H14.5917C14.4609 20.3447 14.3357 20.2941 14.224 20.2195C14.0623 20.1115 13.9362 19.9578 13.8618 19.7781C13.7873 19.5984 13.7678 19.4006 13.8058 19.2098C13.8437 19.019 13.9374 18.8437 14.075 18.7062C14.2125 18.5686 14.3878 18.4749 14.5786 18.437C14.7694 18.399 14.9672 18.4185 15.1469 18.493C15.3266 18.5674 15.4803 18.6935 15.5883 18.8552C15.6964 19.017 15.7541 19.2072 15.7541 19.4017C15.7541 19.6626 15.6505 19.9127 15.466 20.0972C15.3243 20.239 15.1437 20.333 14.9493 20.3689ZM2.96721 0.696777C1.32847 0.696777 0 2.02524 0 3.66399V19.4017C0 21.0404 1.32847 22.3689 2.96721 22.3689H12.1862L11.9444 24.3033H7.88537C7.33308 24.3033 6.88537 24.751 6.88537 25.3033C6.88537 25.8556 7.33308 26.3033 7.88537 26.3033H21.6559C22.2081 26.3033 22.6559 25.8556 22.6559 25.3033C22.6559 24.751 22.2081 24.3033 21.6559 24.3033H17.5961L17.3543 22.3689H26.5738C28.2125 22.3689 29.541 21.0404 29.541 19.4017V3.66399C29.541 2.02524 28.2125 0.696777 26.5738 0.696777H2.96721Z" fill="#086A92"/>
</svg>
