<svg width="32" height="29" viewBox="0 0 32 29" fill="none" xmlns="http://www.w3.org/2000/svg">
<path d="M16 8.0714V27.3571M16 8.0714C17.0714 3.84194 21.1181 1.68234 29.9286 1.64283C30.0694 1.6423 30.209 1.66965 30.3392 1.72331C30.4694 1.77696 30.5878 1.85586 30.6874 1.95546C30.787 2.05506 30.8659 2.17338 30.9195 2.30361C30.9732 2.43384 31.0005 2.57341 31 2.71426V22C31 22.2841 30.8871 22.5566 30.6862 22.7576C30.4852 22.9585 30.2127 23.0714 29.9286 23.0714C21.3571 23.0714 18.0458 24.7997 16 27.3571C13.9663 24.8125 10.6429 23.0714 2.07144 23.0714C1.40983 23.0714 1.00001 22.5323 1.00001 21.8707V2.71426C0.999476 2.57341 1.02683 2.43384 1.08048 2.30361C1.13414 2.17338 1.21304 2.05506 1.31264 1.95546C1.41223 1.85586 1.53056 1.77696 1.66079 1.72331C1.79102 1.66965 1.93058 1.6423 2.07144 1.64283C10.8819 1.68234 14.9286 3.84194 16 8.0714Z" stroke="#086A92" stroke-width="2" stroke-linecap="round" stroke-linejoin="round"/>
</svg>
