<svg width="30" height="31" viewBox="0 0 30 31" fill="none" xmlns="http://www.w3.org/2000/svg">
<path d="M15 30.4999C6.72915 30.4999 7.79183e-05 23.7766 7.79183e-05 15.5129C-0.00703214 13.3099 0.472537 11.1324 1.40452 9.1362C2.3365 7.13997 3.69789 5.37423 5.39141 3.96514L6.61016 2.95552L8.64164 5.38725L7.42289 6.39686C6.087 7.50971 5.01338 8.90387 4.27874 10.4797C3.5441 12.0556 3.16658 13.7743 3.17315 15.5129C3.17315 22.0314 8.47866 27.3348 15 27.3348C21.5214 27.3348 26.8269 22.0314 26.8269 15.5129C26.8268 13.7694 26.4397 12.0477 25.6936 10.4719C24.9474 8.89607 23.8609 7.5055 22.5123 6.40047L21.2863 5.39085L23.3055 2.95192L24.5315 3.96153C26.2408 5.3625 27.6179 7.1253 28.5636 9.12284C29.5092 11.1204 29.9998 13.3029 30 15.5129C30 23.7766 23.2709 30.4999 15 30.4999Z" fill="#086A92"/>
<path d="M13.4135 0.5H16.5866V16.6538H13.4135V0.5Z" fill="#086A92"/>
</svg>
