<svg width="32" height="25" viewBox="0 0 32 25" fill="none" xmlns="http://www.w3.org/2000/svg">
<path d="M25.7771 6.60725C25.5809 9.33065 23.5606 11.4286 21.3575 11.4286C19.1544 11.4286 17.1308 9.33132 16.9379 6.60725C16.7371 3.77403 18.7038 1.78589 21.3575 1.78589C24.0113 1.78589 25.978 3.82559 25.7771 6.60725Z" stroke="#086A92" stroke-width="2" stroke-linecap="round" stroke-linejoin="round"/>
<path d="M21.3575 15.7144C16.9935 15.7144 12.797 17.882 11.7456 22.1033C11.6063 22.6618 11.9566 23.2143 12.5304 23.2143H30.1853C30.7592 23.2143 31.1074 22.6618 30.9701 22.1033C29.9188 17.8143 25.7222 15.7144 21.3575 15.7144Z" stroke="#086A92" stroke-width="2" stroke-miterlimit="10"/>
<path d="M12.2506 7.80857C12.0939 9.98354 10.4613 11.6965 8.70152 11.6965C6.94172 11.6965 5.30648 9.98421 5.15246 7.80857C4.99242 5.54588 6.58146 3.92871 8.70152 3.92871C10.8216 3.92871 12.4106 5.58739 12.2506 7.80857Z" stroke="#086A92" stroke-width="2" stroke-linecap="round" stroke-linejoin="round"/>
<path d="M12.6523 15.8483C11.4436 15.2945 10.1124 15.0815 8.70144 15.0815C5.21935 15.0815 1.86448 16.8125 1.02409 20.1842C0.913603 20.6301 1.19351 21.0714 1.65154 21.0714H9.17019" stroke="#086A92" stroke-width="2" stroke-miterlimit="10" stroke-linecap="round"/>
</svg>
